<svg width="18" height="22" viewBox="0 0 18 22" fill="none" xmlns="http://www.w3.org/2000/svg">
<path fill-rule="evenodd" clip-rule="evenodd" d="M12.5216 1C12.7216 2.1 12.2216 3.2 11.6216 4C11.0216 4.8 9.92163 5.5 8.82163 5.4C8.62163 4.3 9.12163 3.3 9.72163 2.5C10.4216 1.7 11.5216 1.1 12.5216 1ZM15.7216 18.4C16.2216 17.6 16.5216 17.1 16.9216 16.2C13.8216 15 13.3216 10.6 16.4216 9C15.5216 7.8 14.2216 7.2 12.9216 7.2C12.0216 7.2 11.4216 7.4 10.8216 7.6C10.3216 7.8 9.92163 7.9 9.42163 7.9C8.82163 7.9 8.42163 7.7 7.82163 7.5C7.22163 7.3 6.62163 7.1 5.92163 7.1C4.52163 7.1 3.02163 7.9 2.12163 9.4C0.821626 11.4 1.02163 15.3 3.12163 18.5C4.02163 19.7 5.02163 21 6.32163 21C6.92163 21 7.22163 20.8 7.62163 20.7C8.12163 20.5 8.62163 20.3 9.42163 20.3C10.3216 20.3 10.7216 20.5 11.2216 20.7C11.6216 20.9 11.9216 21 12.5216 21C13.9216 21 14.9216 19.5 15.7216 18.4Z" stroke="#F0EFEF" stroke-width="1.5" stroke-miterlimit="10" stroke-linecap="round" stroke-linejoin="round"/>
</svg>
