<svg width="25" height="22" viewBox="0 0 25 22" fill="none" xmlns="http://www.w3.org/2000/svg">
<path d="M12.6766 1.06L21.6766 4.65998C22.0266 4.79998 22.3066 5.21997 22.3066 5.58997V8.90998C22.3066 9.45998 21.8566 9.90998 21.3066 9.90998H3.30664C2.75664 9.90998 2.30664 9.45998 2.30664 8.90998V5.58997C2.30664 5.21997 2.58665 4.79998 2.93665 4.65998L11.9366 1.06C12.1366 0.98 12.4766 0.98 12.6766 1.06Z" stroke="#F0EFEF" stroke-width="1.5" stroke-miterlimit="10" stroke-linecap="round" stroke-linejoin="round"/>
<path d="M22.3066 20.91H2.30664V17.91C2.30664 17.36 2.75664 16.91 3.30664 16.91H21.3066C21.8566 16.91 22.3066 17.36 22.3066 17.91V20.91Z" stroke="#F0EFEF" stroke-width="1.5" stroke-miterlimit="10" stroke-linecap="round" stroke-linejoin="round"/>
<path d="M4.30664 16.91V9.90997" stroke="#F0EFEF" stroke-width="1.5" stroke-miterlimit="10" stroke-linecap="round" stroke-linejoin="round"/>
<path d="M8.30664 16.91V9.90997" stroke="#F0EFEF" stroke-width="1.5" stroke-miterlimit="10" stroke-linecap="round" stroke-linejoin="round"/>
<path d="M12.3066 16.91V9.90997" stroke="#F0EFEF" stroke-width="1.5" stroke-miterlimit="10" stroke-linecap="round" stroke-linejoin="round"/>
<path d="M16.3066 16.91V9.90997" stroke="#F0EFEF" stroke-width="1.5" stroke-miterlimit="10" stroke-linecap="round" stroke-linejoin="round"/>
<path d="M20.3066 16.91V9.90997" stroke="#F0EFEF" stroke-width="1.5" stroke-miterlimit="10" stroke-linecap="round" stroke-linejoin="round"/>
<path d="M1.30664 20.91H23.3066" stroke="#F0EFEF" stroke-width="1.5" stroke-miterlimit="10" stroke-linecap="round" stroke-linejoin="round"/>
<path d="M12.3066 7.40997C13.1351 7.40997 13.8066 6.7384 13.8066 5.90997C13.8066 5.08155 13.1351 4.40997 12.3066 4.40997C11.4782 4.40997 10.8066 5.08155 10.8066 5.90997C10.8066 6.7384 11.4782 7.40997 12.3066 7.40997Z" stroke="#F0EFEF" stroke-width="1.5" stroke-miterlimit="10" stroke-linecap="round" stroke-linejoin="round"/>
</svg>
