<svg width="23" height="22" viewBox="0 0 23 22" fill="none" xmlns="http://www.w3.org/2000/svg">
<path d="M9.57001 16H13.57" stroke="#F0EFEF" stroke-width="1.5" stroke-linecap="round" stroke-linejoin="round"/>
<path d="M1.57001 16V6C1.57001 2 2.57001 1 6.57001 1" stroke="#F0EFEF" stroke-width="1.5" stroke-linecap="round" stroke-linejoin="round"/>
<path d="M21.57 16V6C21.57 2 20.57 1 16.57 1" stroke="#F0EFEF" stroke-width="1.5" stroke-linecap="round" stroke-linejoin="round"/>
<path d="M9.57001 14.41V17.7C9.57001 19.7 8.77001 20.5 6.77001 20.5H4.37001C2.37001 20.5 1.57001 19.7 1.57001 17.7V14.41C1.57001 12.41 2.37001 11.61 4.37001 11.61H6.77001C8.77001 11.61 9.57001 12.41 9.57001 14.41Z" stroke="#F0EFEF" stroke-width="1.5" stroke-linecap="round" stroke-linejoin="round"/>
<path d="M21.57 14.41V17.7C21.57 19.7 20.77 20.5 18.77 20.5H16.37C14.37 20.5 13.57 19.7 13.57 17.7V14.41C13.57 12.41 14.37 11.61 16.37 11.61H18.77C20.77 11.61 21.57 12.41 21.57 14.41Z" stroke="#F0EFEF" stroke-width="1.5" stroke-linecap="round" stroke-linejoin="round"/>
</svg>
