<svg width="22" height="22" viewBox="0 0 22 22" fill="none" xmlns="http://www.w3.org/2000/svg">
<path d="M11 10.5C12.1046 10.5 13 9.60457 13 8.5C13 7.39543 12.1046 6.5 11 6.5C9.89543 6.5 9 7.39543 9 8.5C9 9.60457 9.89543 10.5 11 10.5Z" stroke="#F0EFEF" stroke-width="1.5" stroke-miterlimit="10"/>
<path d="M9 12.5C10.3 13.1 11.7 13.1 13 12.5" stroke="#F0EFEF" stroke-width="1.5" stroke-miterlimit="10" stroke-linecap="round" stroke-linejoin="round"/>
<path d="M9 15.5L11 13L13 15.5" stroke="#F0EFEF" stroke-width="1.5" stroke-miterlimit="10" stroke-linecap="round" stroke-linejoin="round"/>
<path d="M11 21C16.5228 21 21 16.5228 21 11C21 5.47715 16.5228 1 11 1C5.47715 1 1 5.47715 1 11C1 16.5228 5.47715 21 11 21Z" stroke="#F0EFEF" stroke-width="1.5" stroke-miterlimit="10"/>
</svg>
