<svg width="23" height="22" viewBox="0 0 23 22" fill="none" xmlns="http://www.w3.org/2000/svg">
<path d="M17.3391 6.16C17.2791 6.15 17.2091 6.15 17.1491 6.16C15.7691 6.11 14.6691 4.98 14.6691 3.58C14.6691 2.15 15.8191 1 17.2491 1C18.6791 1 19.8291 2.16 19.8291 3.58C19.8191 4.98 18.7191 6.11 17.3391 6.16Z" stroke="#F0EFEF" stroke-width="1.5" stroke-linecap="round" stroke-linejoin="round"/>
<path d="M16.3091 13.44C17.6791 13.67 19.1891 13.43 20.2491 12.72C21.6591 11.78 21.6591 10.24 20.2491 9.30004C19.1791 8.59004 17.6491 8.35003 16.2791 8.59003" stroke="#F0EFEF" stroke-width="1.5" stroke-linecap="round" stroke-linejoin="round"/>
<path d="M5.30914 6.16C5.36914 6.15 5.43914 6.15 5.49914 6.16C6.87914 6.11 7.97914 4.98 7.97914 3.58C7.97914 2.15 6.82914 1 5.39914 1C3.96914 1 2.81914 2.16 2.81914 3.58C2.82914 4.98 3.92914 6.11 5.30914 6.16Z" stroke="#F0EFEF" stroke-width="1.5" stroke-linecap="round" stroke-linejoin="round"/>
<path d="M6.33914 13.44C4.96914 13.67 3.45914 13.43 2.39914 12.72C0.989144 11.78 0.989144 10.24 2.39914 9.30004C3.46914 8.59004 4.99914 8.35003 6.36914 8.59003" stroke="#F0EFEF" stroke-width="1.5" stroke-linecap="round" stroke-linejoin="round"/>
<path d="M11.3391 13.63C11.2791 13.62 11.2091 13.62 11.1491 13.63C9.76914 13.58 8.66914 12.45 8.66914 11.05C8.66914 9.61997 9.81914 8.46997 11.2491 8.46997C12.6791 8.46997 13.8291 9.62997 13.8291 11.05C13.8191 12.45 12.7191 13.59 11.3391 13.63Z" stroke="#F0EFEF" stroke-width="1.5" stroke-linecap="round" stroke-linejoin="round"/>
<path d="M8.42914 16.78C7.01914 17.72 7.01914 19.26 8.42914 20.2C10.0291 21.27 12.6491 21.27 14.2491 20.2C15.6591 19.26 15.6591 17.72 14.2491 16.78C12.6591 15.72 10.0291 15.72 8.42914 16.78Z" stroke="#F0EFEF" stroke-width="1.5" stroke-linecap="round" stroke-linejoin="round"/>
</svg>
