<svg width="35" height="75" viewBox="0 0 35 75" fill="none" xmlns="http://www.w3.org/2000/svg">
<path d="M17.5 1.5C17.5 0.671573 16.8284 0 16 0C15.1716 0 14.5 0.671573 14.5 1.5H17.5ZM13.8199 15.7321L12.3562 15.4041L13.8199 15.7321ZM6.24667 35.6617L4.89069 35.0203L4.89069 35.0203L6.24667 35.6617ZM2.30505 63.4745L0.814223 63.6401L2.30505 63.4745ZM26.5 71L25.6679 69.7519L25.6679 69.7519L26.5 71ZM33.3508 54.6169L34.8498 54.6724L33.3508 54.6169ZM19.7545 20.9138L21.2187 20.5884L21.2187 20.5884L19.7545 20.9138ZM18.1601 13.7392L16.6958 14.0646L18.1601 13.7392ZM14.5 1.5C14.5 2.59993 14.0895 5.54043 13.5902 8.59494C13.0994 11.5973 12.5602 14.494 12.3562 15.4041L15.2836 16.0602C15.5079 15.0593 16.0587 12.0898 16.5509 9.07892C17.0346 6.12012 17.5 2.90007 17.5 1.5H14.5ZM12.3562 15.4041C10.8416 22.1615 7.9286 28.5973 4.89069 35.0203L7.60265 36.303C10.6351 29.8915 13.6875 23.1813 15.2836 16.0602L12.3562 15.4041ZM4.89069 35.0203C0.761712 43.7502 -0.233226 54.2131 0.814223 63.6401L3.79587 63.3088C2.79199 54.2738 3.77209 44.4019 7.60265 36.303L4.89069 35.0203ZM0.814223 63.6401C1.18686 66.9938 2.88931 69.4273 5.23862 71.086C7.54223 72.7125 10.4369 73.5794 13.2853 73.9732C16.1476 74.3689 19.0725 74.3022 21.531 73.9759C23.9158 73.6593 26.1031 73.0674 27.3321 72.2481L25.6679 69.7519C25.0409 70.17 23.4359 70.6967 21.1362 71.002C18.9103 71.2974 16.2586 71.3557 13.6962 71.0015C11.1199 70.6452 8.74191 69.8871 6.96891 68.6353C5.24162 67.4158 4.06355 65.7179 3.79587 63.3088L0.814223 63.6401ZM27.3321 72.2481C28.4886 71.4771 29.4869 70.2011 30.3241 68.8171C31.1791 67.4036 31.947 65.7401 32.5941 64.0477C33.8756 60.6961 34.763 57.0176 34.8498 54.6724L31.8519 54.5614C31.7819 56.4505 31.0124 59.7845 29.792 62.9763C29.1881 64.5556 28.4938 66.0466 27.7572 67.2644C27.0027 68.5117 26.28 69.3439 25.6679 69.7519L27.3321 72.2481ZM34.8498 54.6724C35.0048 50.4868 33.1068 46.4672 31.1557 42.8212C29.1268 39.03 27.0547 35.6484 26.2142 32.2863L23.3038 33.0139C24.2619 36.8462 26.6241 40.7114 28.5107 44.2368C30.475 47.9074 31.9736 51.274 31.8519 54.5614L34.8498 54.6724ZM26.2142 32.2863C25.6506 30.0319 24.5264 27.936 23.5346 26.053C22.5063 24.1007 21.6137 22.3659 21.2187 20.5884L18.2902 21.2392C18.7869 23.4745 19.8851 25.5616 20.8803 27.4511C21.9121 29.41 22.8443 31.1759 23.3038 33.0139L26.2142 32.2863ZM21.2187 20.5884C20.6676 18.1082 20.1532 15.7932 19.6244 13.4138L16.6958 14.0646C17.2246 16.444 17.739 18.7591 18.2902 21.2392L21.2187 20.5884ZM19.6244 13.4138C19.0451 10.807 17.5 8.79182 17.5 1.5H14.5C14.5 9.20818 16.2775 12.1822 16.6958 14.0646L19.6244 13.4138Z" fill="#FF0000"/>
</svg>
