<svg width="364" height="30" viewBox="0 0 364 30" fill="none" xmlns="http://www.w3.org/2000/svg">
<path d="M27.1518 15.9398C27.1755 15.6296 27.1875 15.3162 27.1875 15C27.1875 13.0948 26.7503 11.2917 25.9708 9.68556C24.4245 11.1535 22.5839 12.3144 20.5467 13.0708C20.5986 13.707 20.625 14.3504 20.625 15C20.625 16.3765 20.5063 17.7253 20.2787 19.0367C22.7703 18.4097 25.0897 17.3491 27.1518 15.9398Z" fill="#60A5FA"/>
<path d="M18.2929 19.4377C18.5925 18.0055 18.75 16.5212 18.75 15C18.75 14.5396 18.7356 14.0824 18.7071 13.6291C17.5176 13.9125 16.2763 14.0625 15 14.0625C13.7237 14.0625 12.4824 13.9125 11.2929 13.6291C11.2644 14.0824 11.25 14.5396 11.25 15C11.25 16.5212 11.4075 18.0055 11.7071 19.4377C12.7807 19.6022 13.8804 19.6875 15 19.6875C16.1196 19.6875 17.2193 19.6022 18.2929 19.4377Z" fill="#60A5FA"/>
<path d="M12.2153 21.3988C13.1285 21.5069 14.0577 21.5625 15 21.5625C15.9423 21.5625 16.8715 21.5069 17.7847 21.3988C17.1425 23.4684 16.1969 25.4045 15 27.1551C13.8031 25.4045 12.8575 23.4684 12.2153 21.3988Z" fill="#60A5FA"/>
<path d="M9.72132 19.0367C9.49366 17.7253 9.375 16.3765 9.375 15C9.375 14.3504 9.40143 13.707 9.45327 13.0708C7.41607 12.3144 5.57549 11.1535 4.02916 9.68556C3.24967 11.2917 2.8125 13.0948 2.8125 15C2.8125 15.3162 2.82454 15.6296 2.84819 15.9398C4.91032 17.3491 7.22967 18.4097 9.72132 19.0367Z" fill="#60A5FA"/>
<path d="M26.6951 18.4407C25.4255 22.7632 21.8247 26.0883 17.347 26.9618C18.43 25.1405 19.2732 23.1599 19.8331 21.0637C22.2829 20.5501 24.592 19.654 26.6951 18.4407Z" fill="#60A5FA"/>
<path d="M3.30494 18.4407C5.40803 19.654 7.71715 20.5501 10.1669 21.0637C10.7268 23.1599 11.57 25.1405 12.653 26.9618C8.17534 26.0883 4.57455 22.7632 3.30494 18.4407Z" fill="#60A5FA"/>
<path d="M17.347 3.03832C20.4989 3.65318 23.2164 5.48287 24.9921 8.02011C23.6689 9.35618 22.0796 10.4283 20.3104 11.1503C19.8276 8.22865 18.8044 5.48928 17.347 3.03832Z" fill="#60A5FA"/>
<path d="M15 2.84497C16.7858 5.45697 18.0121 8.48183 18.5062 11.7469C17.3854 12.0346 16.2106 12.1875 15 12.1875C13.7894 12.1875 12.6146 12.0346 11.4938 11.7469C11.9879 8.48183 13.2142 5.45697 15 2.84497Z" fill="#60A5FA"/>
<path d="M12.653 3.03831C11.1956 5.48927 10.1724 8.22865 9.68964 11.1503C7.92036 10.4283 6.33111 9.35617 5.00793 8.02011C6.78361 5.48287 9.50106 3.65318 12.653 3.03831Z" fill="#60A5FA"/>
<path fill-rule="evenodd" clip-rule="evenodd" d="M63.7687 2.5H74.2437C78.7937 2.5 81.5062 5.2125 81.4937 9.7625V20.2375C81.4937 24.7875 78.7812 27.5 74.2312 27.5H63.7687C59.2187 27.5 56.5062 24.7875 56.5062 20.225V9.7625C56.5062 5.2125 59.2187 2.5 63.7687 2.5ZM74.3687 9.01253C74.6062 9.25003 74.9187 9.37503 75.2562 9.37503C75.4187 9.37503 75.5812 9.33753 75.7312 9.27503C75.8812 9.21253 76.0187 9.12503 76.1437 9.01253C76.2562 8.88753 76.3437 8.75003 76.4062 8.60003C76.4687 8.45003 76.5062 8.28753 76.5062 8.12503C76.5062 7.96253 76.4687 7.80003 76.4062 7.65003C76.3437 7.48753 76.2562 7.36253 76.1437 7.23753C76.1229 7.22087 76.1021 7.20282 76.0812 7.18477C76.0396 7.14866 75.9979 7.11253 75.9562 7.08753C75.8812 7.03753 75.8062 7.00003 75.7312 6.97503C75.6562 6.93753 75.5812 6.91253 75.4937 6.90003C75.0937 6.81253 74.6562 6.95003 74.3687 7.23753C74.2562 7.36253 74.1687 7.48753 74.1062 7.65003C74.0437 7.80003 74.0062 7.96253 74.0062 8.12503C74.0062 8.28753 74.0437 8.45003 74.1062 8.60003C74.1687 8.75003 74.2562 8.88753 74.3687 9.01253ZM73.8562 15C73.8562 17.6786 71.6848 19.85 69.0062 19.85C66.3276 19.85 64.1562 17.6786 64.1562 15C64.1562 12.3215 66.3276 10.15 69.0062 10.15C71.6848 10.15 73.8562 12.3215 73.8562 15Z" fill="#60A5FA"/>
<path d="M112.286 3.75C109.919 3.75 108 5.58156 108 7.84091V8.86364H138V7.84091C138 5.58156 136.081 3.75 133.714 3.75H112.286Z" fill="#60A5FA"/>
<path fill-rule="evenodd" clip-rule="evenodd" d="M138 11.9318H108V22.1591C108 24.4184 109.919 26.25 112.286 26.25H133.714C136.081 26.25 138 24.4184 138 22.1591V11.9318ZM112.286 17.0455C112.286 16.4806 112.765 16.0227 113.357 16.0227H121.929C122.52 16.0227 123 16.4806 123 17.0455C123 17.6103 122.52 18.0682 121.929 18.0682H113.357C112.765 18.0682 112.286 17.6103 112.286 17.0455ZM113.357 20.1136C112.765 20.1136 112.286 20.5715 112.286 21.1364C112.286 21.7012 112.765 22.1591 113.357 22.1591H117.643C118.235 22.1591 118.714 21.7012 118.714 21.1364C118.714 20.5715 118.235 20.1136 117.643 20.1136H113.357Z" fill="#60A5FA"/>
<path fill-rule="evenodd" clip-rule="evenodd" d="M182.169 3.69627L170.894 7.45877C163.307 9.99627 163.307 14.1338 170.882 16.6463L174.232 17.7588L175.344 21.1088C177.869 28.6963 182.019 28.6963 184.544 21.1088L188.307 9.83377C189.982 4.77127 187.232 2.00877 182.169 3.69627ZM176.494 15.2087C176.682 15.3962 176.919 15.4837 177.157 15.4837C177.394 15.4837 177.632 15.3837 177.819 15.2087L182.569 10.4337C182.932 10.0712 182.932 9.47124 182.569 9.10874C182.207 8.74624 181.607 8.74624 181.244 9.10874L176.494 13.8837C176.132 14.2462 176.132 14.8462 176.494 15.2087Z" fill="#60A5FA"/>
<path d="M233.296 12.0833H229.25V13.75H233.296C233.772 13.75 234.146 13.3833 234.146 12.9167C234.146 12.55 233.738 12.0833 233.296 12.0833Z" fill="#60A5FA"/>
<path d="M234.044 17.9167C234.673 17.9167 235.217 17.5333 235.217 17.0833C235.217 16.6333 234.69 16.25 234.061 16.25H229.25V17.9167H234.044Z" fill="#60A5FA"/>
<path fill-rule="evenodd" clip-rule="evenodd" d="M239.775 26.25C243.21 26.25 246 23.83 246 20.8343V9.16565C246 6.17 243.21 3.75 239.775 3.75H222.225C218.79 3.75 216 6.17 216 9.16565V20.8343C216 23.83 218.79 26.25 222.225 26.25H239.775ZM236.679 12.9167C236.679 13.4667 236.526 13.9833 236.288 14.45C237.172 15.0666 237.75 16 237.75 17.0833C237.75 18.9167 236.084 20.4167 234.044 20.4167H232.242V21.25C232.242 21.9333 231.664 22.5 230.967 22.5C230.27 22.5 229.692 21.9333 229.692 21.25V20.4167H226.275C225.578 20.4167 225 19.85 225 19.1667C225 18.4833 225.578 17.9167 226.275 17.9167H226.7V12.0833H226.275C225.578 12.0833 225 11.5167 225 10.8333C225 10.15 225.578 9.58333 226.275 9.58333H229.692V8.75C229.692 8.06667 230.27 7.5 230.967 7.5C231.664 7.5 232.242 8.06667 232.242 8.75V9.58333H233.279C235.098 9.58333 236.679 11.1333 236.679 12.9167Z" fill="#60A5FA"/>
<path d="M290.231 2.47498H279.769C275.219 2.47498 272.506 5.18747 272.506 9.73747V20.2C272.506 24.75 275.219 27.4625 279.769 27.4625H290.231C294.781 27.4625 297.494 24.75 297.494 20.2V9.73747C297.494 5.18747 294.781 2.47498 290.231 2.47498Z" fill="#60A5FA"/>
<path d="M285.894 11.5749L285.956 15.2624L289.244 15.2124C289.481 15.2124 289.656 15.4249 289.619 15.6499L289.181 18.0374C289.144 18.2124 288.994 18.3374 288.819 18.3499L286.006 18.3999L286.156 27.4624L282.406 27.5249L282.256 18.4624L280.131 18.4999C279.919 18.4999 279.756 18.3374 279.756 18.1249L279.719 15.7499C279.719 15.5374 279.881 15.3749 280.094 15.3749L282.219 15.3374L282.156 11.2749C282.119 9.19992 283.769 7.49992 285.844 7.46242L289.219 7.41241C289.431 7.41241 289.594 7.57492 289.594 7.78742L289.644 10.7874C289.644 10.9999 289.481 11.1624 289.269 11.1624L286.269 11.2124C286.056 11.1999 285.894 11.3749 285.894 11.5749Z" fill="#252525"/>
<path d="M354 9.16565V20.8343C354 23.83 351.21 26.25 347.775 26.25H330.225C326.79 26.25 324 23.83 324 20.8343V9.16565C324 6.17 326.79 3.75 330.225 3.75H347.775C351.21 3.75 354 6.17 354 9.16565Z" fill="#60A5FA"/>
<path d="M349.5 11.9583C349.5 12.1458 349.489 12.3229 349.468 12.5C349.341 14.0104 348.661 15.375 347.63 16.375C346.482 17.5104 344.889 18.2083 343.125 18.2083H339.799C339.268 18.2083 338.822 18.5938 338.747 19.1042L337.94 24.6042C337.876 25.0104 337.579 25.3437 337.186 25.4479C337.09 25.4896 336.994 25.5 336.888 25.5H334.816C334.157 25.5 333.658 24.9271 333.764 24.2917L336.304 9.36458C336.559 7.85416 337.887 6.75 339.449 6.75H344.187C347.12 6.75 349.5 9.08333 349.5 11.9583Z" fill="black" fill-opacity="0.1"/>
<path d="M348 10.4583C348 10.6458 347.989 10.8229 347.968 11C347.841 12.5104 347.161 13.875 346.13 14.875C344.982 16.0104 343.389 16.7083 341.625 16.7083H338.299C337.768 16.7083 337.322 17.0938 337.247 17.6042L336.44 23.1042C336.376 23.5104 336.079 23.8437 335.686 23.9479C335.59 23.9896 335.494 24 335.388 24H333.316C332.657 24 332.158 23.4271 332.264 22.7917L334.804 7.86458C335.059 6.35416 336.387 5.25 337.949 5.25H342.687C345.62 5.25 348 7.58333 348 10.4583Z" fill="#252525"/>
<rect x="0.5" y="0.5" width="363" height="29" rx="4.5" stroke="#9747FF" stroke-dasharray="10 5"/>
</svg>
