<svg width="30" height="30" viewBox="0 0 30 30" fill="none" xmlns="http://www.w3.org/2000/svg">
<path d="M17.296 12.0833H13.25V13.75H17.296C17.772 13.75 18.146 13.3833 18.146 12.9167C18.146 12.55 17.738 12.0833 17.296 12.0833Z" fill="#60A5FA"/>
<path d="M18.044 17.9167C18.673 17.9167 19.217 17.5333 19.217 17.0833C19.217 16.6333 18.69 16.25 18.061 16.25H13.25V17.9167H18.044Z" fill="#60A5FA"/>
<path fill-rule="evenodd" clip-rule="evenodd" d="M23.775 26.25C27.21 26.25 30 23.83 30 20.8343V9.16565C30 6.17 27.21 3.75 23.775 3.75H6.225C2.79 3.75 0 6.17 0 9.16565V20.8343C0 23.83 2.79 26.25 6.225 26.25H23.775ZM20.679 12.9167C20.679 13.4667 20.526 13.9833 20.288 14.45C21.172 15.0666 21.75 16 21.75 17.0833C21.75 18.9167 20.084 20.4167 18.044 20.4167H16.242V21.25C16.242 21.9333 15.664 22.5 14.967 22.5C14.27 22.5 13.692 21.9333 13.692 21.25V20.4167H10.275C9.578 20.4167 9 19.85 9 19.1667C9 18.4833 9.578 17.9167 10.275 17.9167H10.7V12.0833H10.275C9.578 12.0833 9 11.5167 9 10.8333C9 10.15 9.578 9.58333 10.275 9.58333H13.692V8.75C13.692 8.06667 14.27 7.5 14.967 7.5C15.664 7.5 16.242 8.06667 16.242 8.75V9.58333H17.279C19.098 9.58333 20.679 11.1333 20.679 12.9167Z" fill="#60A5FA"/>
</svg>
