<svg width="30" height="30" viewBox="0 0 30 30" fill="none" xmlns="http://www.w3.org/2000/svg">
<path d="M4.28571 3.75C1.91878 3.75 0 5.58156 0 7.84091V8.86364H30V7.84091C30 5.58156 28.0812 3.75 25.7143 3.75H4.28571Z" fill="#60A5FA"/>
<path fill-rule="evenodd" clip-rule="evenodd" d="M30 11.9318H0V22.1591C0 24.4184 1.91878 26.25 4.28572 26.25H25.7143C28.0812 26.25 30 24.4184 30 22.1591V11.9318ZM4.28571 17.0455C4.28571 16.4806 4.76541 16.0227 5.35714 16.0227H13.9286C14.5203 16.0227 15 16.4806 15 17.0455C15 17.6103 14.5203 18.0682 13.9286 18.0682H5.35714C4.76541 18.0682 4.28571 17.6103 4.28571 17.0455ZM5.35714 20.1136C4.76541 20.1136 4.28571 20.5715 4.28571 21.1364C4.28571 21.7012 4.76541 22.1591 5.35714 22.1591H9.64286C10.2346 22.1591 10.7143 21.7012 10.7143 21.1364C10.7143 20.5715 10.2346 20.1136 9.64286 20.1136H5.35714Z" fill="#60A5FA"/>
</svg>
